PathFileType	4	(X/Y/Z)	OpenSim_Sub09_CSStiffKnee_Accel.trc
DataRate	CameraRate	NumFrames	NumMarkers	Units	OrigDataRate	OrigDataStartFrame	OrigNumFrames
100	100	24	8	m	100	3564	7127
Frame#	Time	torso_imu_offset_imu	pelvis_imu_offset_imu	tibia_r_imu_offset_imu	femur_r_imu_offset_imu	tibia_l_imu_offset_imu	femur_l_imu_offset_imu	toes_r_imu_offset_imu	toes_l_imu_offset_imu
				X1	Y1	Z1	X2	Y2	Z2	X3	Y3	Z3	X4	Y4	Z4	X5	Y5	Z5	X6	Y6	Z6	X7	Y7	Z7	X8		Y8	Z8	

3564	35.63000000	12.96838647	-1.59562773	4.33427521	10.88434628	-3.35661811	7.26411269	9.78830205	13.00746191	-0.34330051	12.58975410	-1.31702763	-2.04838581	9.70485388	1.91728688	1.63354301	10.72631270	-4.07893715	1.39449533	6.10300603	-2.87161158	8.96411936	12.20576026	6.46714275	12.83247136
3565	35.64000000	12.10818314	-1.63443437	4.36218456	10.27104659	-1.72082067	7.03942728	8.13208418	10.91888296	-0.91369797	12.45040130	-1.91202453	-2.04659144	9.79192157	0.50901577	1.77695739	10.66700124	-3.25463103	1.54693708	5.80582217	-2.42618032	9.01175529	9.76610503	6.39987436	11.19915223
3566	35.65000000	10.85366673	-1.53753563	4.15259176	9.74406711	-0.48021100	6.79198500	8.78006906	5.66527751	1.15003668	12.55362493	-3.02439117	-1.62159422	8.43919183	-2.33999256	1.82840592	9.69889924	-2.43950178	1.85203430	5.95736286	-1.17718219	8.97637356	8.26586325	7.25855271	7.38530476
3567	35.66000000	9.95069181	-1.44541561	3.77514571	9.13790773	0.56593816	6.50083149	11.94845585	0.80210854	1.01808572	13.16978618	-3.44266297	-0.85227124	6.44398156	-5.32279983	1.17042958	9.20652515	-1.38226319	2.23094811	5.70376818	-1.19979687	8.79556423	2.96886304	4.88062138	7.41651899
3568	35.67000000	9.39994476	-1.46497327	3.43449305	8.45023195	1.49453432	6.07266188	13.37610017	-2.40220011	0.40413133	13.15539234	-1.87846090	0.13535043	5.29655053	-8.56480702	0.31167314	8.51091971	-0.47285223	2.43870186	5.62521741	-1.68894722	8.62734551	1.81147870	7.96573696	16.68279655
3569	35.68000000	9.04947386	-1.55557477	3.14577039	7.74692959	2.06910473	5.63480781	12.08941556	-3.92444706	-0.04562107	11.63063645	0.22743410	1.07925725	4.37227835	-13.50508285	-0.59421225	8.38287727	0.26082006	2.82619201	5.57999221	-1.94267061	8.50170456	4.59690053	10.09553235	18.02648724
3570	35.69000000	8.81725533	-1.58817123	2.92320585	7.07653016	2.44426629	5.26367250	9.86365719	-2.99582712	-0.22759686	9.87694208	1.50802052	1.44626602	3.16519640	-15.53173181	-0.81369094	8.44244455	0.49613585	3.31072461	5.59483366	-1.98549146	8.22525349	-3.94486819	10.33163027	14.10312263
3571	35.70000000	8.89159339	-1.56234380	2.95225810	6.71722274	2.64875952	4.93973743	8.90658639	-0.94339280	0.81366837	8.95943347	1.75641736	1.22444169	3.63653624	-10.92095837	-0.28438312	8.95647965	0.16723909	3.32318987	5.25390058	-2.23371338	8.29070691	-6.14287828	9.37320831	14.36238343
3572	35.71000000	8.98424298	-1.53325581	3.15547265	6.49423654	2.89941346	4.78886947	9.85266934	2.04428916	1.10302889	8.61899706	1.57177814	1.18409559	3.53588536	-6.25055603	-0.18237559	9.28900973	-0.91119453	2.87987195	5.22984536	-2.14465341	8.42246677	-1.85460865	6.85665042	15.79244647
3573	35.72000000	8.65342291	-1.39619517	3.28309515	6.37779093	2.86054476	4.89959387	10.40114300	5.83176568	1.10833995	8.35540286	1.16314997	1.51804273	2.80529178	-4.75851842	0.36461919	8.72938049	-2.10513349	2.26595334	5.08400883	-2.14457693	8.35383705	-1.31109765	3.52915388	15.05200697
3574	35.73000000	8.26340111	-1.21757487	3.39315585	6.37771467	2.58739722	5.06953357	9.71614268	8.42588626	0.69801624	8.14701448	0.86688409	1.55710515	3.59036750	-4.64741334	0.95866109	8.25036292	-2.68041346	1.90969638	5.07284128	-2.66257393	8.27425862	-2.41664226	0.41759366	13.47340127
3575	35.74000000	8.00493089	-1.16470890	3.60708161	6.49000227	2.27069979	5.29748658	8.87195286	8.40852102	-0.06239776	8.19120666	0.73977513	1.26023139	5.05662829	-3.84009666	1.40118431	7.78020656	-2.82952538	1.99396965	5.20533068	-3.20605905	8.01850923	-1.71161261	-0.82282046	12.71080405
3576	35.75000000	7.89014176	-1.16543920	3.70479990	6.56373944	1.92332850	5.45602961	8.45354075	6.04355168	-0.30005029	8.45944352	0.70925704	0.90536298	6.07802353	-1.94778140	2.39562968	7.10979309	-2.74109787	2.27334670	5.73932926	-3.06198697	7.54113378	0.68554913	-1.10987720	12.14034910
3577	35.76000000	7.77180111	-1.13824053	3.71236207	6.59984158	1.61855490	5.50117537	8.69113334	2.57696353	0.04813869	8.67756557	0.61293574	0.55576156	6.24475924	-0.71438834	2.81908500	6.39864938	-2.65110081	2.29612164	5.85366180	-2.71311822	7.55234113	3.10646905	-1.46374327	11.74913114
3578	35.77000000	7.66035127	-1.11783482	3.67203138	6.61348982	1.28339811	5.54254667	9.54186619	-0.67701763	0.51038631	8.88247837	0.34478890	0.41672831	6.02171279	-0.73228244	2.15530992	6.12533296	-2.63445481	2.12053652	5.54933442	-2.45415867	7.90034170	3.98193963	-1.58655793	11.24245450
3579	35.78000000	7.62952086	-1.10641387	3.63332330	6.64230289	0.79377688	5.50759152	10.50067426	-3.02718278	0.60242295	9.13324157	0.02108628	0.40682311	6.06725278	-1.47291816	1.70525376	6.13496271	-2.65022310	1.92497368	5.52906972	-2.32296790	8.03151134	3.43861011	-1.21246762	10.57408569
3580	35.79000000	7.74464956	-1.08521695	3.68641783	6.75463146	0.37425504	5.56916672	11.12948972	-3.92446651	0.46658190	9.41548225	-0.30253469	0.42839212	6.33620065	-1.83452577	1.77692272	6.41534494	-2.70639516	1.88412117	5.56727122	-2.36624016	8.01573771	3.54524023	-0.80122852	10.14749607
3581	35.80000000	7.86566782	-1.04836008	3.82866323	6.92858795	0.23687900	5.50305205	11.06640418	-2.78257644	0.22110338	9.62642500	-0.54680822	0.35704773	6.54738041	-1.34716618	2.00859535	6.79127926	-2.77594909	1.75772461	5.65694282	-2.46659466	7.86979271	4.98757911	-0.32313198	10.09447138
3582	35.81000000	7.93602568	-0.99260603	3.89020974	7.08442798	0.20581300	5.43942510	10.30282962	-0.22714228	-0.08080260	9.70758007	-0.71064233	0.32874754	6.79357422	-0.22889850	2.41475856	6.98548966	-2.91584201	1.50764057	5.69981623	-2.62901214	7.79443898	6.39593662	0.40912719	10.12122437
3583	35.82000000	8.00153609	-0.98660427	3.97906331	7.23735760	0.21719189	5.41131458	9.29676153	2.45024194	-0.13705864	9.52787005	-0.89593080	0.18102575	7.32176564	1.00034281	3.06206437	7.25860614	-2.91121573	1.42472227	5.91807055	-2.76192428	7.63438362	6.91287541	1.43292692	9.92875270
3584	35.83000000	8.07559378	-0.91525163	4.11719440	7.20407674	0.34436616	5.44179804	8.43828051	4.05036680	0.25826415	9.18067998	-1.02264108	-0.20640851	7.96904061	1.98137074	3.57372949	7.86520173	-2.77041935	1.36251576	5.82716705	-2.71673170	7.55876792	6.95198220	2.55596767	9.62386607
3585	35.84000000	8.15487877	-0.84331193	4.21341011	7.23746381	0.43605703	5.37879925	8.16258735	4.11798897	0.58987151	8.90372504	-0.85646791	-0.42412783	8.54582038	2.54301730	3.95196364	8.15245092	-2.63712833	1.33439829	5.94800182	-2.36151521	7.59060040	6.88284623	3.56466909	9.37599847
3586	35.85000000	8.22260686	-0.80836872	4.28973375	7.31689560	0.46636310	5.48039632	8.72614968	2.71830322	0.55135804	8.81831766	-0.55466323	-0.42004225	8.85370334	2.52110732	4.22399887	8.27844426	-2.35455519	1.40927704	5.78351167	-2.26645130	7.83148651	6.77167428	4.11775433	9.13684638
3587	35.86000000	8.37745303	-0.86284377	4.40471762	7.39393954	0.60102612	5.54378972	10.02493238	0.43651321	0.44297980	8.89206435	-0.30660839	-0.41947455	8.81452347	1.93264541	4.26831524	8.39504697	-1.71460264	1.41901333	5.44454671	-2.55224453	7.95112620	6.43939683	4.36539072	9.12161333
